<svg xmlns="http://www.w3.org/2000/svg" xmlns:xlink="http://www.w3.org/1999/xlink" id="Layer_1" x="0" y="0" fill="#324971" enable-background="new 0 0 2341.671 436.409" version="1.1" viewBox="0 0 2341.671 436.409" xml:space="preserve"><path d="M2297.441,153.27c5.554,4.625-0.694,7.339-7.775,6.345c-132.741-18.646-363.636,56.105-404.35,77.14	c120.662,22.417,114.939,137.346,49.833,164.954c-60.951,26.602-121.226-39.004-80.754-90.009	c-0.136,2.009,1.437,14.692,2.728,21.002c9.136,56.679,85.115,40.593,76.963-14.447c-6.42-36.652-48.824-53.747-86.473-55.706	c-78.027-13.213-404.59,168.63-657.924-78.227c23.454,173.685-156.585,238.605-233.616,151.334	c-72.729-86.412,23.714-201.291,103.384-123.204c2.409,1.718,1.255,4.801,1.373,7.283c-75.569-31.384-96.04,68.252-42.577,85.818	c90.445,34.242,157.69-100.44,61.988-185.129c-88.317-65.76-270.274,27.435-328.589,67.071	c108.869-9.504,155.421,97.516,98.447,160.526c-54.345,53.588-150.643,17.244-139.66-51.742c3.869-28.49,27.451-44.66,49.596-42.505	c20.293,0.845,45.465,21.992,36.731,52.096c-6.537-4.591-9.11-12.892-15.856-17.165c-18.801-9.223-38.409,5.326-33.822,22.148	c9.432,34.586,54.517,31.056,76.326,10.701c27.07-25.265,15.302-70.044-8.765-92.798c-16.818-15.901-38.173-18.994-61.06-16.141	c-102.917,11.753-224.572,178.469-509.727,87.464c-43.276-15.358-77.363-28.601-124.059-64.234	c-47.042-34.684-77.045-92.178-77.854-118.767c11.765,9.525,10.522,20.986,41.786,50.878	c59.673,61.784,170.659,97.848,195.83,102.856c-22.872-19.733-37.732-53.867-30.867-96.347	c13.454-66.598,95.591-89.774,146.852-53.988c60.108,40.283,31.411,137.374-35.031,120.695	c-18.107-4.606-51.047-36.175-18.829-70.889c1.246,0.882,2.527,1.709,3.655,2.728c0.286,4.24-4.354,26.923,10.219,34.586	c17.733,8.568,44.684-10.072,27.248-40.995c-10.903-13.622-20.156-21.055-46.55-19.275c-68.199,8.541-61.327,86.05-32.313,113.194	c45.819,49.337,180.467,39.237,245.226,8.019c128.217-58.029,88.778-174.987,23.629-163.388	c-29.772,5.301-48.362,35.512-39.775,64.439c-25.021-6.369-38.792-66.021-5.501-97.608c38.772-41.466,131.557-24.21,137.678,64.307	c0.167,11.9,2.713,43.283-18.938,80.327c-1.173,2.646-4.591,4.137-4.673,7.255c6.355-4.833,73.358-49.232,86.546-57.852	c330.878-228.019,405.554-59.513,547.576,30.249c-25.344-31.69-24.436-82.737,3.619-112.43	c27.169-30.892,78.094-38.702,117.967-11.265c35.585,23.282,42.499,65.901,22.948,94.665c-12.278,19.457-44.045,31.721-69.38,13.32	c-16.946-10.81-25.619-42.301,0.736-60.288c-3.876,36.979,24.307,36.512,36.24,26.476c23.209-22.99-26.815-78.64-76.854-37.177	c-39.263,46.866-4.621,131.353,119.104,141.36c7.481-0.271,52.466,5.853,86.409-16.965c31.641-18.88,48.943-55.412,34.385-81.1	c-22.076-32.337-71.003-22.524-78.717,17.093c-1.382,6.583-0.245,13.392-1.846,19.938c-16.43-15.414-19.619-72.665,23.439-94.101	c32.508-16.17,76.064-0.254,93.192,29.712c16.117,28.822,18.141,75.61-24.657,121.176c-27.406,23.311-27.387,18.42-38.695,27.167	c77.166,5.027,207.38-12.042,284.603-61.27c50.898-31.522,66.094-83.203,50.709-109.148c-16.578-27.957-61.876-30.54-78.691-0.511	c-10.067,17.977-4.398,40.762,7.18,56.617c-0.914,1.452-1.681,3.009-2.602,4.441c-10.374-9.928-26.667-15.104-33.584-45.245	c-8.931-38.918,16.092-76.704,50.678-86.609c96.022-26.253,157.763,107.112,68.762,181.01	C2037.053,139.008,2191.888,65.376,2297.441,153.27z"/></svg>